<?xml version="1.0" encoding="utf-8"?>
<!-- Generator: Adobe Illustrator 25.2.3, SVG Export Plug-In . SVG Version: 6.00 Build 0)  -->
<svg version="1.1" xmlns="http://www.w3.org/2000/svg" xmlns:xlink="http://www.w3.org/1999/xlink" x="0px" y="0px"
	 viewBox="0 0 405.35 405.35" style="enable-background:new 0 0 405.35 405.35;" xml:space="preserve">
<g id="Calque_1">
	<g>
		<g>
			<polygon points="73.26,234.2 71.86,234.2 71.86,242.93 77.57,242.93 77.57,241.59 73.26,241.59 			"/>
			<polygon points="85.62,239.21 89.54,239.21 89.54,237.87 85.62,237.87 85.62,235.54 90.02,235.54 90.02,234.2 84.22,234.2
				84.22,242.93 90.18,242.93 90.18,241.59 85.62,241.59 			"/>
			<polygon points="100.13,239.94 97.83,234.2 96.17,234.2 100.06,243.33 103.97,234.2 102.33,234.2 			"/>
			<polygon points="111.83,239.21 115.74,239.21 115.74,237.87 111.83,237.87 111.83,235.54 116.22,235.54 116.22,234.2
				110.43,234.2 110.43,242.93 116.39,242.93 116.39,241.59 111.83,241.59 			"/>
			<path d="M128.15,238.97c0.24-0.28,0.41-0.59,0.51-0.94c0.1-0.34,0.16-0.69,0.16-1.03c0-0.46-0.08-0.86-0.23-1.2
				c-0.15-0.34-0.37-0.63-0.65-0.87c-0.28-0.24-0.62-0.42-1.02-0.55c-0.4-0.13-0.83-0.19-1.31-0.19h-2.47v8.74h1.4v-3.04h1.27
				c0.04,0,0.08-0.01,0.12-0.01l1.97,3.05h1.63l-2.13-3.38C127.69,239.39,127.95,239.21,128.15,238.97z M124.53,235.54h1.3
				c0.3,0,0.56,0.05,0.76,0.15c0.2,0.1,0.36,0.23,0.47,0.39c0.12,0.16,0.2,0.33,0.25,0.5c0.05,0.17,0.07,0.33,0.07,0.47
				c0,0.15-0.03,0.31-0.08,0.49c-0.05,0.17-0.14,0.33-0.26,0.49s-0.28,0.28-0.49,0.37s-0.46,0.14-0.77,0.14h-1.25V235.54z"/>
			<path d="M138.92,233.84l-3.88,9.1h1.38l0.85-2.06h3.18l0.82,2.06h1.6l-3.86-9.1H138.92z M137.76,239.69l1.14-2.76l1.09,2.76
				H137.76z"/>
			<path d="M154.53,242.73c0.28-0.08,0.52-0.18,0.73-0.29c0.21-0.11,0.38-0.21,0.51-0.32v-3.6h-3.06v1.36h1.64v1.45
				c-0.18,0.1-0.4,0.18-0.66,0.23s-0.52,0.07-0.79,0.07c-0.47,0-0.9-0.07-1.3-0.21c-0.39-0.14-0.73-0.34-1-0.61
				c-0.28-0.26-0.49-0.58-0.65-0.95c-0.16-0.37-0.24-0.78-0.24-1.24c0-0.49,0.07-0.93,0.22-1.31c0.15-0.39,0.36-0.72,0.64-0.99
				c0.28-0.27,0.62-0.48,1.02-0.62c0.4-0.14,0.85-0.21,1.34-0.21c0.21,0,0.44,0.03,0.68,0.08c0.25,0.05,0.49,0.12,0.73,0.19
				c0.24,0.08,0.43,0.16,0.58,0.26l0.47-1.3c-0.33-0.18-0.72-0.34-1.17-0.46s-0.94-0.18-1.47-0.18c-0.6,0-1.17,0.1-1.71,0.3
				c-0.54,0.2-1.02,0.5-1.43,0.89c-0.41,0.4-0.74,0.88-0.98,1.46c-0.24,0.58-0.37,1.25-0.37,2c0,0.62,0.11,1.19,0.32,1.71
				c0.22,0.52,0.52,0.96,0.92,1.34c0.4,0.38,0.88,0.68,1.45,0.89c0.56,0.22,1.2,0.32,1.91,0.32c0.25,0,0.52-0.03,0.8-0.08
				S154.26,242.82,154.53,242.73z"/>
			<polygon points="168.65,241.59 164.09,241.59 164.09,239.21 168,239.21 168,237.87 164.09,237.87 164.09,235.54 168.48,235.54
				168.48,234.2 162.69,234.2 162.69,242.93 168.65,242.93 			"/>
			<polygon points="183.4,235.54 185.6,235.54 185.6,242.93 186.99,242.93 186.99,235.54 189.24,235.54 189.24,234.2 183.4,234.2
							"/>
			<polygon points="201.78,241.59 197.22,241.59 197.22,239.21 201.13,239.21 201.13,237.87 197.22,237.87 197.22,235.54
				201.62,235.54 201.62,234.2 195.82,234.2 195.82,242.93 201.78,242.93 			"/>
			<path d="M213.58,241.48c-0.34,0.14-0.74,0.21-1.19,0.21s-0.86-0.08-1.22-0.23c-0.36-0.15-0.67-0.37-0.93-0.65s-0.46-0.61-0.6-1
				c-0.14-0.39-0.21-0.81-0.21-1.25c0-0.43,0.08-0.84,0.23-1.22c0.16-0.38,0.37-0.71,0.64-1c0.27-0.28,0.58-0.5,0.92-0.66
				c0.35-0.16,0.71-0.23,1.1-0.23c0.42,0,0.8,0.07,1.14,0.22c0.34,0.15,0.62,0.31,0.84,0.47l0.55-1.31c-0.3-0.19-0.66-0.36-1.1-0.51
				c-0.44-0.15-0.93-0.22-1.47-0.22c-0.63,0-1.21,0.11-1.74,0.34c-0.53,0.22-0.98,0.54-1.37,0.94c-0.38,0.4-0.68,0.88-0.89,1.44
				s-0.31,1.16-0.31,1.81c0,0.6,0.1,1.16,0.31,1.69c0.2,0.52,0.5,0.99,0.88,1.39c0.38,0.4,0.84,0.72,1.38,0.96
				c0.54,0.24,1.15,0.36,1.83,0.37c0.42,0.01,0.81-0.03,1.16-0.13s0.65-0.2,0.91-0.32s0.44-0.23,0.56-0.33l-0.59-1.25
				C214.2,241.18,213.93,241.34,213.58,241.48z"/>
			<polygon points="227.36,237.88 223.06,237.88 223.06,234.2 221.66,234.2 221.66,242.93 223.06,242.93 223.06,239.23
				227.36,239.23 227.36,242.93 228.76,242.93 228.76,234.2 227.36,234.2 			"/>
			<polygon points="243.64,243.24 243.67,243.24 243.67,234.2 242.28,234.2 242.31,240.09 236.03,233.9 235.96,233.9 235.96,242.93
				237.37,242.93 237.35,237.15 			"/>
			<path d="M257.97,235.43c-0.42-0.42-0.89-0.74-1.43-0.98c-0.54-0.24-1.11-0.35-1.72-0.35c-0.62,0-1.2,0.12-1.74,0.35
				c-0.54,0.24-1.01,0.56-1.42,0.98s-0.73,0.89-0.96,1.43s-0.35,1.11-0.35,1.71c0,0.62,0.12,1.21,0.35,1.75s0.55,1.01,0.96,1.42
				c0.41,0.4,0.88,0.72,1.42,0.95c0.54,0.23,1.11,0.34,1.73,0.34c0.62,0,1.19-0.11,1.73-0.34c0.54-0.23,1.01-0.55,1.43-0.96
				c0.42-0.41,0.75-0.89,0.98-1.42s0.35-1.11,0.35-1.73c0-0.6-0.12-1.17-0.35-1.71S258.38,235.85,257.97,235.43z M257.61,239.79
				c-0.16,0.38-0.37,0.71-0.64,0.99c-0.27,0.28-0.58,0.51-0.95,0.67c-0.36,0.16-0.76,0.24-1.18,0.24s-0.82-0.08-1.19-0.24
				s-0.7-0.38-0.98-0.67c-0.28-0.28-0.5-0.61-0.65-0.99s-0.23-0.78-0.23-1.22c0-0.42,0.08-0.83,0.23-1.21
				c0.15-0.38,0.37-0.71,0.64-1c0.28-0.28,0.6-0.51,0.97-0.67c0.37-0.16,0.76-0.25,1.19-0.25s0.82,0.08,1.19,0.24
				c0.37,0.16,0.69,0.38,0.96,0.67c0.27,0.29,0.49,0.62,0.65,1s0.24,0.78,0.24,1.22C257.85,239.01,257.77,239.41,257.61,239.79z"/>
			<polygon points="267.35,234.2 265.95,234.2 265.95,242.93 271.66,242.93 271.66,241.59 267.35,241.59 			"/>
			<path d="M285.2,235.43c-0.42-0.42-0.89-0.74-1.43-0.98c-0.54-0.24-1.11-0.35-1.72-0.35c-0.62,0-1.2,0.12-1.74,0.35
				c-0.54,0.24-1.01,0.56-1.42,0.98s-0.73,0.89-0.96,1.43s-0.35,1.11-0.35,1.71c0,0.62,0.12,1.21,0.35,1.75s0.55,1.01,0.96,1.42
				c0.41,0.4,0.88,0.72,1.42,0.95c0.54,0.23,1.11,0.34,1.73,0.34c0.62,0,1.19-0.11,1.73-0.34c0.54-0.23,1.01-0.55,1.43-0.96
				c0.42-0.41,0.75-0.89,0.98-1.42s0.35-1.11,0.35-1.73c0-0.6-0.12-1.17-0.35-1.71S285.61,235.85,285.2,235.43z M284.84,239.79
				c-0.16,0.38-0.37,0.71-0.64,0.99c-0.27,0.28-0.58,0.51-0.95,0.67s-0.76,0.24-1.18,0.24s-0.82-0.08-1.19-0.24s-0.7-0.38-0.98-0.67
				c-0.28-0.28-0.5-0.61-0.65-0.99s-0.23-0.78-0.23-1.22c0-0.42,0.08-0.83,0.23-1.21c0.15-0.38,0.37-0.71,0.64-1
				c0.28-0.28,0.6-0.51,0.97-0.67c0.37-0.16,0.76-0.25,1.19-0.25s0.82,0.08,1.19,0.24c0.37,0.16,0.69,0.38,0.96,0.67
				c0.27,0.29,0.49,0.62,0.65,1s0.24,0.78,0.24,1.22C285.08,239.01,285,239.41,284.84,239.79z"/>
			<path d="M297.07,239.89h1.64v1.45c-0.18,0.1-0.4,0.18-0.66,0.23s-0.52,0.07-0.79,0.07c-0.47,0-0.9-0.07-1.3-0.21
				c-0.39-0.14-0.73-0.34-1-0.61c-0.28-0.26-0.49-0.58-0.65-0.95c-0.16-0.37-0.24-0.78-0.24-1.24c0-0.49,0.07-0.93,0.22-1.31
				c0.15-0.39,0.36-0.72,0.64-0.99c0.28-0.27,0.62-0.48,1.02-0.62c0.4-0.14,0.85-0.21,1.34-0.21c0.21,0,0.44,0.03,0.68,0.08
				c0.25,0.05,0.49,0.12,0.73,0.19c0.24,0.08,0.43,0.16,0.58,0.26l0.47-1.3c-0.33-0.18-0.72-0.34-1.17-0.46s-0.94-0.18-1.47-0.18
				c-0.6,0-1.17,0.1-1.71,0.3c-0.54,0.2-1.02,0.5-1.43,0.89c-0.41,0.4-0.74,0.88-0.98,1.46c-0.24,0.58-0.37,1.25-0.37,2
				c0,0.62,0.11,1.19,0.32,1.71c0.22,0.52,0.52,0.96,0.92,1.34c0.4,0.38,0.88,0.68,1.45,0.89c0.56,0.22,1.2,0.32,1.91,0.32
				c0.25,0,0.52-0.03,0.8-0.08s0.57-0.13,0.85-0.21s0.52-0.18,0.73-0.29c0.21-0.11,0.38-0.21,0.51-0.32v-3.6h-3.06V239.89z"/>
			<rect x="307.05" y="234.2" width="1.4" height="8.74"/>
			<polygon points="317.05,239.21 320.97,239.21 320.97,237.87 317.05,237.87 317.05,235.54 321.45,235.54 321.45,234.2
				315.65,234.2 315.65,242.93 321.61,242.93 321.61,241.59 317.05,241.59 			"/>
			<path d="M333.31,239.48c-0.12-0.29-0.29-0.53-0.5-0.72c-0.21-0.19-0.45-0.35-0.7-0.48s-0.52-0.25-0.78-0.34
				c-0.3-0.12-0.59-0.25-0.86-0.38c-0.27-0.13-0.49-0.29-0.67-0.47c-0.17-0.18-0.26-0.39-0.26-0.63c0-0.34,0.12-0.6,0.37-0.79
				c0.25-0.19,0.59-0.29,1.02-0.29c0.32,0,0.66,0.06,1.01,0.17c0.35,0.12,0.68,0.26,1,0.43l0.54-1.07c-0.34-0.22-0.73-0.4-1.17-0.55
				c-0.44-0.15-0.96-0.22-1.58-0.22c-0.51,0.02-0.97,0.13-1.37,0.34c-0.4,0.21-0.71,0.49-0.93,0.85c-0.22,0.36-0.32,0.77-0.32,1.25
				c0,0.39,0.07,0.72,0.22,1c0.14,0.27,0.34,0.5,0.58,0.69c0.24,0.19,0.51,0.35,0.8,0.47s0.56,0.24,0.83,0.35
				c0.27,0.1,0.52,0.22,0.75,0.35c0.23,0.13,0.41,0.28,0.56,0.46c0.14,0.17,0.22,0.38,0.22,0.63c0,0.31-0.08,0.56-0.24,0.74
				c-0.16,0.18-0.37,0.32-0.62,0.4s-0.5,0.13-0.74,0.13s-0.49-0.04-0.75-0.11s-0.51-0.17-0.76-0.29s-0.47-0.25-0.66-0.4l-0.62,1.08
				c0.26,0.19,0.55,0.36,0.86,0.49c0.31,0.14,0.64,0.24,0.99,0.32c0.35,0.08,0.71,0.12,1.07,0.12c0.61,0,1.13-0.11,1.57-0.34
				c0.44-0.23,0.77-0.53,1-0.9c0.23-0.37,0.34-0.79,0.34-1.25C333.49,240.12,333.43,239.77,333.31,239.48z"/>
			<polygon points="105.98,259.93 107.38,259.93 107.38,256.35 110.79,256.35 110.79,255 107.38,255 107.38,252.54 111.28,252.54
				111.28,251.2 105.98,251.2 			"/>
			<path d="M124.86,252.43c-0.42-0.42-0.89-0.74-1.43-0.98c-0.54-0.24-1.11-0.35-1.72-0.35c-0.62,0-1.2,0.12-1.74,0.35
				c-0.54,0.24-1.01,0.56-1.42,0.98s-0.73,0.89-0.96,1.43s-0.35,1.11-0.35,1.71c0,0.62,0.12,1.21,0.35,1.75s0.55,1.01,0.96,1.42
				c0.41,0.4,0.88,0.72,1.42,0.95c0.54,0.23,1.11,0.34,1.73,0.34c0.62,0,1.19-0.11,1.73-0.34c0.54-0.23,1.01-0.55,1.43-0.96
				c0.42-0.41,0.75-0.89,0.98-1.42s0.35-1.11,0.35-1.73c0-0.6-0.12-1.17-0.35-1.71S125.28,252.85,124.86,252.43z M124.51,256.79
				c-0.16,0.38-0.37,0.71-0.64,0.99c-0.27,0.28-0.58,0.51-0.95,0.67s-0.76,0.24-1.18,0.24s-0.82-0.08-1.19-0.24s-0.7-0.38-0.98-0.67
				c-0.28-0.28-0.5-0.61-0.65-0.99s-0.23-0.78-0.23-1.22c0-0.42,0.08-0.83,0.23-1.21c0.15-0.38,0.37-0.71,0.64-1
				c0.28-0.28,0.6-0.51,0.97-0.67c0.37-0.16,0.76-0.25,1.19-0.25s0.82,0.08,1.19,0.24c0.37,0.16,0.69,0.38,0.96,0.67
				c0.27,0.29,0.49,0.62,0.65,1s0.24,0.78,0.24,1.22C124.74,256.01,124.66,256.41,124.51,256.79z"/>
			<path d="M137.87,255.97c0.24-0.28,0.41-0.59,0.51-0.94c0.1-0.34,0.16-0.69,0.16-1.03c0-0.46-0.08-0.86-0.23-1.2
				c-0.15-0.34-0.37-0.63-0.65-0.87s-0.62-0.42-1.02-0.55c-0.4-0.13-0.83-0.19-1.31-0.19h-2.47v8.74h1.4v-3.04h1.27
				c0.04,0,0.08-0.01,0.12-0.01l1.97,3.05h1.63l-2.13-3.38C137.41,256.39,137.67,256.21,137.87,255.97z M134.25,252.54h1.3
				c0.3,0,0.56,0.05,0.76,0.15c0.2,0.1,0.36,0.23,0.47,0.39c0.12,0.16,0.2,0.33,0.25,0.5c0.05,0.17,0.07,0.33,0.07,0.47
				c0,0.15-0.03,0.31-0.08,0.49c-0.05,0.17-0.14,0.33-0.26,0.49s-0.28,0.28-0.49,0.37s-0.46,0.14-0.77,0.14h-1.25V252.54z"/>
			<polygon points="157.36,255.5 155.12,251.2 153.4,251.2 156.63,257.09 156.63,259.93 158.02,259.93 158.02,257.09 161.29,251.2
				159.58,251.2 			"/>
			<path d="M173.87,252.43c-0.42-0.42-0.89-0.74-1.43-0.98c-0.54-0.24-1.11-0.35-1.72-0.35c-0.62,0-1.2,0.12-1.74,0.35
				c-0.54,0.24-1.01,0.56-1.42,0.98s-0.73,0.89-0.96,1.43s-0.35,1.11-0.35,1.71c0,0.62,0.12,1.21,0.35,1.75s0.55,1.01,0.96,1.42
				c0.41,0.4,0.88,0.72,1.42,0.95c0.54,0.23,1.11,0.34,1.73,0.34c0.62,0,1.19-0.11,1.73-0.34c0.54-0.23,1.01-0.55,1.43-0.96
				c0.42-0.41,0.75-0.89,0.98-1.42s0.35-1.11,0.35-1.73c0-0.6-0.12-1.17-0.35-1.71S174.29,252.85,173.87,252.43z M173.52,256.79
				c-0.16,0.38-0.37,0.71-0.64,0.99c-0.27,0.28-0.58,0.51-0.95,0.67s-0.76,0.24-1.18,0.24s-0.82-0.08-1.19-0.24s-0.7-0.38-0.98-0.67
				c-0.28-0.28-0.5-0.61-0.65-0.99s-0.23-0.78-0.23-1.22c0-0.42,0.08-0.83,0.23-1.21c0.15-0.38,0.37-0.71,0.64-1
				c0.28-0.28,0.6-0.51,0.97-0.67c0.37-0.16,0.76-0.25,1.19-0.25s0.82,0.08,1.19,0.24c0.37,0.16,0.69,0.38,0.96,0.67
				c0.27,0.29,0.49,0.62,0.65,1s0.24,0.78,0.24,1.22C173.75,256.01,173.67,256.41,173.52,256.79z"/>
			<path d="M187.12,256.79c0,0.34-0.09,0.66-0.27,0.94c-0.18,0.28-0.42,0.51-0.73,0.69c-0.3,0.18-0.65,0.26-1.03,0.26
				c-0.37,0-0.7-0.09-1-0.26c-0.3-0.18-0.53-0.41-0.71-0.69c-0.18-0.28-0.27-0.6-0.27-0.94v-5.59h-1.4v5.62
				c0,0.64,0.15,1.2,0.46,1.69c0.3,0.48,0.71,0.86,1.22,1.13c0.51,0.27,1.08,0.4,1.7,0.4s1.19-0.13,1.71-0.4
				c0.52-0.27,0.93-0.64,1.23-1.13c0.3-0.48,0.46-1.05,0.46-1.69v-5.62h-1.37V256.79z"/>
			<path d="M200.56,255.97c0.24-0.28,0.41-0.59,0.51-0.94c0.1-0.34,0.16-0.69,0.16-1.03c0-0.46-0.08-0.86-0.23-1.2
				c-0.15-0.34-0.37-0.63-0.65-0.87s-0.62-0.42-1.02-0.55c-0.4-0.13-0.83-0.19-1.31-0.19h-2.47v8.74h1.4v-3.04h1.27
				c0.04,0,0.08-0.01,0.12-0.01l1.97,3.05h1.63l-2.13-3.38C200.11,256.39,200.37,256.21,200.56,255.97z M196.95,252.54h1.3
				c0.3,0,0.56,0.05,0.76,0.15c0.2,0.1,0.36,0.23,0.47,0.39c0.12,0.16,0.2,0.33,0.25,0.5c0.05,0.17,0.07,0.33,0.07,0.47
				c0,0.15-0.03,0.31-0.08,0.49c-0.05,0.17-0.14,0.33-0.26,0.49s-0.28,0.28-0.49,0.37s-0.46,0.14-0.77,0.14h-1.25V252.54z"/>
			<path d="M221.14,255.37c0.33-0.18,0.6-0.41,0.8-0.71c0.23-0.35,0.35-0.77,0.35-1.27c0-0.74-0.26-1.3-0.77-1.66
				c-0.52-0.36-1.22-0.54-2.11-0.54h-2.39v8.74h2.74c0.37,0,0.73-0.05,1.09-0.14c0.36-0.09,0.67-0.24,0.95-0.44
				c0.28-0.2,0.5-0.46,0.67-0.77c0.17-0.32,0.25-0.7,0.25-1.15c0-0.5-0.15-0.92-0.45-1.28
				C221.99,255.82,221.61,255.56,221.14,255.37z M218.43,252.54h1.04c0.42,0,0.76,0.09,1.01,0.28c0.25,0.19,0.37,0.47,0.37,0.86
				c0,0.34-0.1,0.63-0.29,0.87c-0.2,0.24-0.5,0.37-0.92,0.37h-1.21V252.54z M221.07,258.11c-0.14,0.18-0.34,0.31-0.58,0.4
				c-0.24,0.09-0.51,0.13-0.8,0.13h-1.26v-2.38h1.16c0.28,0,0.55,0.04,0.8,0.11c0.26,0.07,0.47,0.19,0.64,0.36s0.25,0.4,0.25,0.71
				C221.28,257.71,221.21,257.93,221.07,258.11z"/>
			<path d="M234.65,256.79c0,0.34-0.09,0.66-0.27,0.94c-0.18,0.28-0.42,0.51-0.73,0.69c-0.3,0.18-0.65,0.26-1.03,0.26
				c-0.37,0-0.7-0.09-1-0.26c-0.3-0.18-0.53-0.41-0.71-0.69c-0.18-0.28-0.27-0.6-0.27-0.94v-5.59h-1.4v5.62
				c0,0.64,0.15,1.2,0.46,1.69c0.3,0.48,0.71,0.86,1.22,1.13c0.51,0.27,1.08,0.4,1.7,0.4s1.19-0.13,1.71-0.4
				c0.52-0.27,0.93-0.64,1.23-1.13c0.3-0.48,0.46-1.05,0.46-1.69v-5.62h-1.37V256.79z"/>
			<path d="M247.53,255.76c-0.21-0.19-0.45-0.35-0.7-0.48s-0.52-0.25-0.78-0.34c-0.3-0.12-0.59-0.25-0.86-0.38
				c-0.27-0.13-0.49-0.29-0.67-0.47c-0.17-0.18-0.26-0.39-0.26-0.63c0-0.34,0.12-0.6,0.37-0.79c0.25-0.19,0.59-0.29,1.02-0.29
				c0.32,0,0.66,0.06,1.01,0.17c0.35,0.12,0.68,0.26,1,0.43l0.54-1.07c-0.34-0.22-0.73-0.4-1.17-0.55
				c-0.44-0.15-0.96-0.22-1.58-0.22c-0.51,0.02-0.97,0.13-1.37,0.34c-0.4,0.21-0.71,0.49-0.93,0.85c-0.22,0.36-0.32,0.77-0.32,1.25
				c0,0.39,0.07,0.72,0.22,1c0.14,0.27,0.34,0.5,0.58,0.69c0.24,0.19,0.51,0.35,0.8,0.47s0.56,0.24,0.83,0.35
				c0.27,0.1,0.52,0.22,0.75,0.35c0.23,0.13,0.41,0.28,0.56,0.46c0.14,0.17,0.22,0.38,0.22,0.63c0,0.31-0.08,0.56-0.24,0.74
				c-0.16,0.18-0.37,0.32-0.62,0.4s-0.5,0.13-0.74,0.13s-0.49-0.04-0.75-0.11s-0.51-0.17-0.76-0.29s-0.47-0.25-0.66-0.4l-0.62,1.08
				c0.26,0.19,0.55,0.36,0.86,0.49c0.31,0.14,0.64,0.24,0.99,0.32c0.35,0.08,0.71,0.12,1.07,0.12c0.61,0,1.13-0.11,1.57-0.34
				c0.44-0.23,0.77-0.53,1-0.9c0.23-0.37,0.34-0.79,0.34-1.25c0-0.41-0.06-0.76-0.19-1.05S247.75,255.95,247.53,255.76z"/>
			<rect x="254.86" y="251.2" width="1.4" height="8.74"/>
			<polygon points="269.81,257.09 263.54,250.9 263.46,250.9 263.46,259.93 264.88,259.93 264.86,254.15 271.14,260.24
				271.18,260.24 271.18,251.2 269.79,251.2 			"/>
			<polygon points="279.79,256.21 283.71,256.21 283.71,254.87 279.79,254.87 279.79,252.54 284.19,252.54 284.19,251.2
				278.39,251.2 278.39,259.93 284.35,259.93 284.35,258.59 279.79,258.59 			"/>
			<path d="M295.54,255.76c-0.21-0.19-0.45-0.35-0.7-0.48s-0.52-0.25-0.78-0.34c-0.3-0.12-0.59-0.25-0.86-0.38
				c-0.27-0.13-0.49-0.29-0.67-0.47c-0.17-0.18-0.26-0.39-0.26-0.63c0-0.34,0.12-0.6,0.37-0.79c0.25-0.19,0.59-0.29,1.02-0.29
				c0.32,0,0.66,0.06,1.01,0.17c0.35,0.12,0.68,0.26,1,0.43l0.54-1.07c-0.34-0.22-0.73-0.4-1.17-0.55
				c-0.44-0.15-0.96-0.22-1.58-0.22c-0.51,0.02-0.97,0.13-1.37,0.34c-0.4,0.21-0.71,0.49-0.93,0.85c-0.22,0.36-0.32,0.77-0.32,1.25
				c0,0.39,0.07,0.72,0.22,1c0.14,0.27,0.34,0.5,0.58,0.69c0.24,0.19,0.51,0.35,0.8,0.47s0.56,0.24,0.83,0.35
				c0.27,0.1,0.52,0.22,0.75,0.35c0.23,0.13,0.41,0.28,0.56,0.46c0.14,0.17,0.22,0.38,0.22,0.63c0,0.31-0.08,0.56-0.24,0.74
				c-0.16,0.18-0.37,0.32-0.62,0.4s-0.5,0.13-0.74,0.13s-0.49-0.04-0.75-0.11s-0.51-0.17-0.76-0.29s-0.47-0.25-0.66-0.4l-0.62,1.08
				c0.26,0.19,0.55,0.36,0.86,0.49c0.31,0.14,0.64,0.24,0.99,0.32c0.35,0.08,0.71,0.12,1.07,0.12c0.61,0,1.13-0.11,1.57-0.34
				c0.44-0.23,0.77-0.53,1-0.9c0.23-0.37,0.34-0.79,0.34-1.25c0-0.41-0.06-0.76-0.19-1.05S295.76,255.95,295.54,255.76z"/>
			<path d="M307.33,255.76c-0.21-0.19-0.45-0.35-0.7-0.48s-0.52-0.25-0.78-0.34c-0.3-0.12-0.59-0.25-0.86-0.38
				c-0.27-0.13-0.49-0.29-0.67-0.47c-0.17-0.18-0.26-0.39-0.26-0.63c0-0.34,0.12-0.6,0.37-0.79c0.25-0.19,0.59-0.29,1.02-0.29
				c0.32,0,0.66,0.06,1.01,0.17c0.35,0.12,0.68,0.26,1,0.43l0.54-1.07c-0.34-0.22-0.73-0.4-1.17-0.55
				c-0.44-0.15-0.96-0.22-1.58-0.22c-0.51,0.02-0.97,0.13-1.37,0.34c-0.4,0.21-0.71,0.49-0.93,0.85c-0.22,0.36-0.32,0.77-0.32,1.25
				c0,0.39,0.07,0.72,0.22,1c0.14,0.27,0.34,0.5,0.58,0.69c0.24,0.19,0.51,0.35,0.8,0.47s0.56,0.24,0.83,0.35
				c0.27,0.1,0.52,0.22,0.75,0.35c0.23,0.13,0.41,0.28,0.56,0.46c0.14,0.17,0.22,0.38,0.22,0.63c0,0.31-0.08,0.56-0.24,0.74
				c-0.16,0.18-0.37,0.32-0.62,0.4s-0.5,0.13-0.74,0.13s-0.49-0.04-0.75-0.11s-0.51-0.17-0.76-0.29s-0.47-0.25-0.66-0.4l-0.62,1.08
				c0.26,0.19,0.55,0.36,0.86,0.49c0.31,0.14,0.64,0.24,0.99,0.32c0.35,0.08,0.71,0.12,1.07,0.12c0.61,0,1.13-0.11,1.57-0.34
				c0.44-0.23,0.77-0.53,1-0.9c0.23-0.37,0.34-0.79,0.34-1.25c0-0.41-0.06-0.76-0.19-1.05S307.54,255.95,307.33,255.76z"/>
		</g>
		<rect x="234.77" y="155.53" transform="matrix(0.9193 -0.3935 0.3935 0.9193 -40.5015 115.5214)" width="53.41" height="2"/>
		<polygon points="155.77,197.31 128.77,167.79 128.57,167.79 128.57,204.44 132.02,204.44 131.93,176.17 158.92,205.39
			159.07,205.39 159.07,168.69 155.72,168.69 		"/>
		<path d="M216.05,174.62c-1.52-1.78-3.5-3.22-5.95-4.3s-5.42-1.62-8.92-1.62h-9.2v35.75h10.95c2.33,0,4.55-0.41,6.65-1.23
			c2.1-0.82,3.97-1.99,5.6-3.52c1.63-1.53,2.92-3.38,3.88-5.55c0.95-2.17,1.42-4.6,1.42-7.3c0-2.1-0.36-4.22-1.08-6.35
			C218.68,178.36,217.56,176.4,216.05,174.62z M215.82,192.74c-0.77,1.77-1.83,3.28-3.17,4.55c-1.35,1.27-2.92,2.23-4.7,2.9
			s-3.72,1-5.83,1h-6.75v-29.2h6.5c2.3,0,4.38,0.37,6.23,1.1c1.85,0.73,3.43,1.75,4.75,3.05c1.32,1.3,2.33,2.84,3.05,4.62
			s1.08,3.74,1.08,5.88C216.97,188.94,216.59,190.98,215.82,192.74z"/>
		<polygon points="276.9,204.44 261.6,167.14 261.4,167.14 246.05,204.44 249.45,204.44 261.4,174.82 273.05,204.44 		"/>
	</g>
</g>
<g id="Calque_2">
</g>
</svg>
